<svg xmlns="http://www.w3.org/2000/svg" fill="none" viewBox="0 0 557 509">
  <rect width="557" height="509" fill="#D0E9FF" rx="80"/>
  <g filter="url(#a)">
    <rect width="199" height="64" x="68" y="134" fill="#fff" rx="24"/>
  </g>
  <path fill="#4A8CFF" d="M153.51 155.2a10.87 10.87 0 0 0-10.93 10.8c0 5.97 4.89 10.82 10.92 10.82 6.04 0 10.94-4.83 10.94-10.8 0-5.98-4.89-10.83-10.93-10.83Zm4.62 15.4a6.61 6.61 0 0 1-9.27-.02 6.45 6.45 0 0 1 0-9.16 6.6 6.6 0 0 1 9.27-.01h.02a6.43 6.43 0 0 1-.02 9.19Z"/>
  <path fill="#4A8CFF" d="m140.4 172.55-1.1-.06h-9.84l13.12-12.98-.05-1.08a3.3 3.3 0 0 0-3.23-3.2l-1.1-.05h-16.39l.06 1.08a3.37 3.37 0 0 0 3.23 3.2l1.09.05h9.84L122.9 172.5l.06 1.08a3.33 3.33 0 0 0 3.22 3.19l1.1.06h16.39l-.06-1.09a3.35 3.35 0 0 0-3.22-3.19Z"/>
  <path fill="#fff" d="M158.14 161.4a6.61 6.61 0 0 0-9.28 0 6.45 6.45 0 0 0 0 9.17 6.6 6.6 0 0 0 9.28.01 6.44 6.44 0 0 0 0-9.18Z"/>
  <path fill="#4A8CFF" d="M210.35 155.19a8.79 8.79 0 0 0-6.55 2.93 8.8 8.8 0 0 0-11.45-1.45c-.84-.94-2.76-1.48-3.85-1.48v21.63l1.1-.05c1.81-.12 3.15-1.4 3.22-3.2l.06-1.08v-7.57l.06-1.08c0-.75.2-1.5.54-2.16a4.39 4.39 0 0 1 7.55 0c.35.67.53 1.4.53 2.16l.06 1.08v7.57l.06 1.09a3.33 3.33 0 0 0 3.21 3.19l1.1.05v-11.9l.05-1.08c0-.76.19-1.5.55-2.18a4.4 4.4 0 0 1 7.56.02c.35.67.53 1.4.53 2.16l.06 1.08v7.57l.06 1.09a3.32 3.32 0 0 0 3.21 3.19l1.1.05v-12.98a8.72 8.72 0 0 0-8.76-8.65Zm-26.15 3.17a10.99 10.99 0 0 0-15.47 0 10.74 10.74 0 0 0 .02 15.3 11.02 11.02 0 0 0 15.46 0 10.72 10.72 0 0 0-.02-15.3Zm-3.1 12.24a6.61 6.61 0 0 1-9.28-.02 6.45 6.45 0 0 1 0-9.16 6.6 6.6 0 0 1 9.28-.01 6.43 6.43 0 0 1 0 9.19Z"/>
  <path fill="#fff" d="M181.1 161.4a6.61 6.61 0 0 0-9.28 0 6.45 6.45 0 0 0 0 9.17 6.6 6.6 0 0 0 9.28.01 6.44 6.44 0 0 0 0-9.18Z"/>
  <g filter="url(#b)">
    <rect width="199" height="64" x="68" y="311" fill="#fff" rx="24"/>
  </g>
  <g filter="url(#c)">
    <rect width="199" height="64" x="290" y="311" fill="#fff" rx="24"/>
  </g>
  <g clip-path="url(#d)">
    <path fill="#069" d="M417.88 328.44a2.4 2.4 0 0 1 2.37-2.44h27.36a2.4 2.4 0 0 1 2.37 2.44v29.13a2.4 2.4 0 0 1-2.37 2.43h-27.36a2.4 2.4 0 0 1-2.37-2.44v-29.12Z"/>
    <path fill="#000" d="M328.02 354.48h13.4v-4.63h-8.56V332.2h-4.84v22.29Zm20.18 0v-15.35h-4.85v15.35h4.85Zm-2.43-17.45c1.7 0 2.75-1.18 2.75-2.65a2.58 2.58 0 0 0-2.72-2.65c-1.66 0-2.74 1.14-2.74 2.65a2.57 2.57 0 0 0 2.68 2.65h.03Zm4.68 17.45h4.85v-8.57c0-.46.03-.92.15-1.25.36-.92 1.15-1.87 2.5-1.87 1.75 0 2.45 1.41 2.45 3.48v8.21h4.85v-8.8c0-4.72-2.4-6.91-5.58-6.91a4.8 4.8 0 0 0-4.4 2.58h.03v-2.22h-4.85c.06 1.44 0 15.35 0 15.35Zm21.64-22.29h-4.85v22.29h4.85v-4.98l1.21-1.6 3.8 6.58h5.96l-6.38-9.53 5.58-6.48h-5.83s-4 5.8-4.34 6.48V332.2Z"/>
    <path fill="#000" d="M396.03 348.07c.06-.4.16-1.15.16-2 0-3.97-1.92-8-6.95-8-5.4 0-7.88 4.49-7.88 8.56 0 5.03 3.03 8.17 8.32 8.17 2.1 0 4.05-.32 5.65-1.01l-.64-3.37c-1.3.46-2.65.68-4.3.68-2.27 0-4.25-.97-4.4-3.06l10.04.03Zm-10.08-3.45c.13-1.3.96-3.24 3.03-3.24 2.2 0 2.71 2.06 2.71 3.24h-5.74Zm22.2-12.43v7.71h-.06c-.7-1.08-2.17-1.8-4.11-1.8-3.73 0-7.02 3.15-6.99 8.52 0 4.98 2.97 8.22 6.67 8.22 2 0 3.92-.92 4.88-2.69h.1l.19 2.33h4.3a90.5 90.5 0 0 1-.13-4.78v-17.51h-4.84Zm0 15.18a6 6 0 0 1-.09 1.11 2.89 2.89 0 0 1-2.84 2.4c-2 0-3.32-1.7-3.32-4.4 0-2.52 1.12-4.55 3.36-4.55 1.5 0 2.55 1.08 2.83 2.43.07.3.07.62.07.91v2.1Z"/>
    <path fill="#fff" d="M427.61 354.46v-15.35h-4.85v15.35h4.85Zm-2.42-17.44c1.69 0 2.74-1.18 2.74-2.66-.03-1.5-1.05-2.65-2.71-2.65s-2.74 1.15-2.74 2.65a2.57 2.57 0 0 0 2.68 2.66h.03Zm5.1 17.44h4.85v-8.57c0-.46.04-.92.16-1.24.35-.92 1.15-1.87 2.5-1.87 1.75 0 2.45 1.4 2.45 3.47v8.21h4.85v-8.8c0-4.71-2.4-6.9-5.59-6.9a4.8 4.8 0 0 0-4.4 2.58h.03v-2.23h-4.84c.06 1.44 0 15.35 0 15.35Z"/>
  </g>
  <g filter="url(#e)">
    <rect width="199" height="64" x="290" y="135" fill="#fff" rx="24"/>
  </g>
  <g filter="url(#f)">
    <rect width="199" height="64" x="68" y="222" fill="#fff" rx="24"/>
  </g>
  <path fill="#141414" d="M136 253.45v.67c0 1.46-.5 2.68-1.5 3.65a5.52 5.52 0 0 1-3.99 1.44 5.75 5.75 0 0 1-5.9-5.81c0-1.62.55-3 1.66-4.11a5.68 5.68 0 0 1 4.21-1.7 5.58 5.58 0 0 1 4.85 2.7l-1.28.76a4.15 4.15 0 0 0-3.58-2.02 4.24 4.24 0 0 0-4.38 4.37 4.24 4.24 0 0 0 4.44 4.35 4.3 4.3 0 0 0 2.72-.81 3.39 3.39 0 0 0 1.26-2.15h-4.11v-1.34h5.6Zm8.42 4.54a4.1 4.1 0 0 1-3 1.22 4.1 4.1 0 0 1-2.99-1.22 4.07 4.07 0 0 1-1.21-2.99c0-1.18.4-2.18 1.21-3a4.1 4.1 0 0 1 3-1.2 4.13 4.13 0 0 1 4.22 4.2c0 1.18-.41 2.18-1.23 3Zm-3-.14c.8 0 1.48-.27 2.02-.82.55-.54.82-1.22.82-2.03 0-.81-.27-1.49-.82-2.03a2.74 2.74 0 0 0-2.01-.82c-.8 0-1.46.27-2 .82a2.76 2.76 0 0 0-.82 2.03c0 .81.27 1.49.81 2.03.55.55 1.22.82 2 .82Zm12.62.14a4.1 4.1 0 0 1-2.99 1.22 4.1 4.1 0 0 1-3-1.22 4.07 4.07 0 0 1-1.2-2.99 4.1 4.1 0 0 1 4.2-4.2 4.17 4.17 0 0 1 4.22 4.2c0 1.18-.4 2.18-1.23 3Zm-2.99-.14c.8 0 1.47-.27 2.02-.82.54-.54.81-1.22.81-2.03 0-.81-.27-1.49-.81-2.03a2.74 2.74 0 0 0-2.02-.82 2.7 2.7 0 0 0-2 .82 2.76 2.76 0 0 0-.82 2.03c0 .81.28 1.49.82 2.03a2.7 2.7 0 0 0 2 .82Zm12.5-6.85h1.38v7.66c0 1.19-.4 2.1-1.2 2.76-.8.66-1.76.99-2.88.99-.9 0-1.67-.17-2.32-.51a3.32 3.32 0 0 1-1.47-1.44l1.22-.7c.43.9 1.3 1.35 2.6 1.35a2.8 2.8 0 0 0 1.96-.65 2.3 2.3 0 0 0 .72-1.8v-1.13a3.4 3.4 0 0 1-3.01 1.6c-1.14 0-2.1-.4-2.9-1.22a4.09 4.09 0 0 1-1.18-2.96c0-1.16.4-2.14 1.18-2.94a3.89 3.89 0 0 1 2.9-1.22c1.3 0 2.31.53 3 1.59V251Zm-4.88 5.98c.55.55 1.23.82 2.04.82.8 0 1.48-.27 2.03-.82.54-.54.81-1.22.81-2.03a2.76 2.76 0 0 0-2.85-2.83c-.8 0-1.48.27-2.03.82a2.74 2.74 0 0 0-.81 2.01c0 .81.27 1.49.81 2.03Zm8.37 2.02v-11.68h1.4V259h-1.4Zm4.5-3.36c.13.72.46 1.27.97 1.66.52.4 1.16.6 1.92.6 1.05 0 1.82-.4 2.3-1.17l1.19.67a3.91 3.91 0 0 1-3.52 1.8c-1.27 0-2.3-.39-3.1-1.18a4.13 4.13 0 0 1-1.2-3.02c0-1.2.4-2.2 1.18-3 .78-.8 1.78-1.2 3.02-1.2 1.17 0 2.13.4 2.86 1.24a4.27 4.27 0 0 1 1.08 3.6h-6.7Zm2.76-3.54a2.63 2.63 0 0 0-2.76 2.32h5.34a2.67 2.67 0 0 0-.9-1.72c-.48-.4-1.04-.6-1.68-.6Zm13.34 7.1a4.08 4.08 0 0 1-4.2-4.2 4.07 4.07 0 0 1 4.2-4.2 4 4 0 0 1 2.13.57c.63.37 1.1.88 1.41 1.52l-1.17.67c-.2-.43-.51-.77-.94-1.02-.42-.26-.9-.39-1.43-.39a2.79 2.79 0 0 0-2.82 2.85 2.77 2.77 0 0 0 2.82 2.83c.54 0 1.02-.12 1.44-.37.43-.25.76-.6.98-1.02l1.18.69a3.95 3.95 0 0 1-1.47 1.52c-.64.37-1.35.56-2.13.56Zm11.5-8.2h1.39v8h-1.4v-1.38a3.4 3.4 0 0 1-3.02 1.59c-1.12 0-2.08-.4-2.87-1.22a4.16 4.16 0 0 1-1.18-2.99c0-1.17.4-2.16 1.19-2.98a3.83 3.83 0 0 1 2.86-1.23 3.4 3.4 0 0 1 3.02 1.59V251Zm-2.85 6.86c.8 0 1.48-.27 2.03-.81.54-.56.81-1.24.81-2.05 0-.81-.27-1.49-.81-2.03a2.73 2.73 0 0 0-2.03-.83c-.8 0-1.48.27-2.02.83a2.76 2.76 0 0 0-.82 2.03c0 .81.28 1.5.82 2.05.54.54 1.22.81 2.01.81Zm6.34 1.14v-11.68h1.4V259h-1.4Zm4.5-3.36c.13.72.46 1.27.97 1.66.52.4 1.16.6 1.92.6 1.06 0 1.83-.4 2.3-1.17l1.19.67a3.91 3.91 0 0 1-3.52 1.8c-1.27 0-2.3-.39-3.1-1.18a4.13 4.13 0 0 1-1.19-3.02 4.03 4.03 0 0 1 4.2-4.2c1.17 0 2.12.4 2.86 1.24a4.27 4.27 0 0 1 1.07 3.6h-6.7Zm2.76-3.54c-.74 0-1.36.22-1.85.64-.5.42-.8.98-.91 1.68h5.34a2.67 2.67 0 0 0-.9-1.72c-.48-.4-1.04-.6-1.68-.6Zm9.57-1.3c.94 0 1.7.3 2.26.89.56.59.85 1.38.85 2.4V259h-1.4v-4.83c0-.65-.17-1.15-.52-1.5a1.93 1.93 0 0 0-1.46-.55c-.7 0-1.25.22-1.68.66-.43.42-.64 1.08-.64 1.98V259h-1.4v-8h1.4v1.15a2.84 2.84 0 0 1 2.6-1.36Zm11.67-3h1.4V259h-1.4v-1.38a3.4 3.4 0 0 1-3.02 1.59c-1.12 0-2.08-.4-2.87-1.22a4.16 4.16 0 0 1-1.18-2.99c0-1.17.4-2.16 1.19-2.98a3.83 3.83 0 0 1 2.86-1.23 3.4 3.4 0 0 1 3.02 1.59v-4.58Zm-2.84 10.06c.8 0 1.48-.27 2.03-.81.54-.56.81-1.24.81-2.05 0-.81-.27-1.49-.81-2.03a2.73 2.73 0 0 0-2.03-.83c-.8 0-1.48.27-2.02.83a2.76 2.76 0 0 0-.82 2.03c0 .81.28 1.5.82 2.05.54.54 1.22.81 2.01.81Zm12.97-6.86h1.39v8h-1.4v-1.38a3.4 3.4 0 0 1-3.02 1.59c-1.12 0-2.07-.4-2.86-1.22a4.16 4.16 0 0 1-1.18-2.99c0-1.17.4-2.16 1.18-2.98a3.83 3.83 0 0 1 2.86-1.23 3.4 3.4 0 0 1 3.03 1.59V251Zm-2.85 6.86a2.8 2.8 0 0 0 2.85-2.86c0-.81-.27-1.49-.82-2.03a2.73 2.73 0 0 0-2.03-.83c-.8 0-1.47.27-2.02.83a2.76 2.76 0 0 0-.81 2.03 2.77 2.77 0 0 0 2.83 2.86Zm7.74-5.52c.46-.99 1.3-1.48 2.5-1.48v1.45a2.52 2.52 0 0 0-1.76.55c-.5.4-.74 1.02-.74 1.9V259h-1.4v-8h1.4v1.34Z"/>
  <g clip-path="url(#g)">
    <path fill="#fff" d="M105.25 246.75h-14.5v14.5h14.5v-14.5Z"/>
    <path fill="#34A853" d="M105.25 261.25h-14.5v6.54h14.5v-6.54Z"/>
    <path fill="#4285F4" d="M105.25 240.21H86.39a2.2 2.2 0 0 0-2.18 2.18v18.86h6.54v-14.5h14.5v-6.54Z"/>
    <path fill="#188038" d="M84.21 261.25v4.36a2.2 2.2 0 0 0 2.18 2.18h4.36v-6.54H84.2Z"/>
    <path fill="#FBBC04" d="M111.79 246.75h-6.54v14.5h6.54v-14.5Z"/>
    <path fill="#1967D2" d="M111.79 246.75v-4.36a2.2 2.2 0 0 0-2.18-2.18h-4.36v6.54h6.54Z"/>
    <path fill="#EA4335" d="m105.25 267.79 6.54-6.54h-6.54v6.54Z"/>
    <path fill="#2A83F8" d="m100.05 252.7-.7-.98 2.48-1.78h.93v8.39h-1.34v-6.68l-1.37 1.05Zm-3.08 1.22a2.3 2.3 0 0 0 1.01-1.87c0-1.3-1.16-2.36-2.6-2.36a2.54 2.54 0 0 0-2.53 1.87l1.15.46a1.28 1.28 0 0 1 1.3-1.02 1.19 1.19 0 0 1 .92.3 1.2 1.2 0 0 1 0 1.78 1.21 1.21 0 0 1-.9.32h-.72v1.13h.8a1.35 1.35 0 0 1 1.05.35 1.38 1.38 0 0 1 .33 1.56 1.36 1.36 0 0 1-1.38.8 1.54 1.54 0 0 1-1.15-.48 1.3 1.3 0 0 1-.24-.37l-.2-.49-1.22.47c.18 1.26 1.37 2.23 2.8 2.23 1.55 0 2.81-1.15 2.81-2.56a2.5 2.5 0 0 0-1.23-2.12Z"/>
  </g>
  <g filter="url(#h)">
    <rect width="199" height="64" x="290" y="223" fill="#fff" rx="24"/>
  </g>
  <g clip-path="url(#i)">
    <path fill="#E0E0E0" d="M125.59 331.65c-2.94-3-6.86-4.65-11.03-4.65-8.59 0-15.58 7.11-15.58 15.86 0 2.8.71 5.52 2.08 7.92L98.85 359l8.26-2.2a15.35 15.35 0 0 0 7.45 1.93c8.6 0 15.59-7.12 15.59-15.86a15.9 15.9 0 0 0-4.56-11.22Zm-11.03 24.4c-2.33 0-4.6-.64-6.6-1.84l-.47-.29-4.9 1.31 1.3-4.86-.3-.5a13.33 13.33 0 0 1-1.98-7.01c0-7.27 5.81-13.18 12.96-13.18 3.46 0 6.71 1.37 9.16 3.86 2.44 2.5 3.79 5.8 3.79 9.33a13.1 13.1 0 0 1-12.96 13.18Z"/>
    <path fill="url(#j)" d="m99.56 358.08 2.11-7.84a15.3 15.3 0 0 1-1.98-7.56c0-8.35 6.67-15.13 14.87-15.13a14.6 14.6 0 0 1 10.52 4.44 15.17 15.17 0 0 1 4.35 10.7c0 8.34-6.67 15.13-14.87 15.13-2.5 0-4.94-.63-7.11-1.84l-7.89 2.1Z"/>
    <path fill="#fff" fill-rule="evenodd" d="M110.71 336.12c-.29-.65-.59-.66-.86-.67l-.74-.01c-.26 0-.67.1-1.03.49-.35.39-1.35 1.34-1.35 3.26 0 1.93 1.38 3.8 1.58 4.06.19.26 2.66 4.34 6.57 5.91 3.25 1.3 3.92 1.05 4.62.98.7-.06 2.28-.95 2.6-1.86.32-.92.32-1.7.23-1.86-.1-.17-.36-.27-.74-.46-.39-.2-2.28-1.14-2.63-1.28-.36-.13-.61-.2-.87.2s-1 1.27-1.22 1.54c-.22.26-.45.29-.83.1-.39-.2-1.63-.62-3.1-1.95a11.8 11.8 0 0 1-2.14-2.71c-.22-.4-.02-.6.17-.8.17-.18.38-.46.58-.69.19-.23.25-.4.38-.65.13-.26.06-.5-.03-.69-.1-.2-.84-2.13-1.19-2.9Z" clip-rule="evenodd"/>
    <path fill="#fff" d="M125.47 331.6a15.18 15.18 0 0 0-10.9-4.6c-8.5 0-15.4 7.03-15.4 15.67-.01 2.77.7 5.46 2.05 7.84l-2.19 8.12 8.17-2.18a15.18 15.18 0 0 0 7.36 1.91c8.5 0 15.41-7.03 15.41-15.67 0-4.2-1.6-8.13-4.5-11.1Zm-10.9 24.11c-2.3 0-4.56-.63-6.52-1.81l-.47-.28-4.85 1.29 1.3-4.8-.31-.5a13.16 13.16 0 0 1-1.96-6.94c0-7.18 5.75-13.02 12.81-13.02 3.42 0 6.64 1.36 9.06 3.82a13.07 13.07 0 0 1 3.74 9.22c0 7.18-5.75 13.02-12.8 13.02Z"/>
  </g>
  <path fill="#141414" d="m143.36 350-3.96-14h2.42l2.94 10.94 3.18-10.94h2.12l3.16 10.94 2.94-10.94h2.42l-3.96 14h-2.66L149 339.78 146.02 350h-2.66Zm21.15-10.26a3.7 3.7 0 0 1 2.78 1.1 4.2 4.2 0 0 1 1.06 3.02V350h-2.16v-5.92c0-.75-.2-1.32-.6-1.72-.4-.4-.95-.6-1.64-.6-.76 0-1.37.24-1.84.72-.47.47-.7 1.19-.7 2.16V350h-2.16v-14h2.16v5.28c.65-1.03 1.69-1.54 3.1-1.54ZM178 340h2.16v10H178v-1.44a4.05 4.05 0 0 1-3.5 1.7 4.7 4.7 0 0 1-3.52-1.52 5.23 5.23 0 0 1-1.46-3.74c0-1.48.48-2.73 1.46-3.74a4.7 4.7 0 0 1 3.52-1.52c1.52 0 2.68.56 3.5 1.68V340Zm-5.42 7.3c.6.6 1.35.9 2.26.9A3.07 3.07 0 0 0 178 345a3.09 3.09 0 0 0-3.16-3.2 3.09 3.09 0 0 0-3.16 3.2c0 .92.3 1.69.9 2.3Zm15.07-5.22h-2.48v4.8c0 .41.1.71.28.9.19.17.46.27.82.3.38.01.84 0 1.38-.02V350c-1.65.2-2.84.06-3.56-.42-.72-.5-1.08-1.4-1.08-2.7v-4.8h-1.84V340h1.84v-2.16l2.16-.64v2.8h2.48v2.08Zm2.93.68c0 .33.18.6.54.8.38.19.82.35 1.34.5.53.13 1.07.3 1.6.48.53.19.98.5 1.34.96.38.44.56 1 .56 1.68 0 .96-.37 1.71-1.12 2.26a4.5 4.5 0 0 1-2.78.82c-.99 0-1.83-.2-2.54-.62a3.64 3.64 0 0 1-1.54-1.72l1.86-1.08c.35.96 1.09 1.44 2.22 1.44 1.13 0 1.7-.37 1.7-1.12 0-.32-.19-.58-.56-.78a5.3 5.3 0 0 0-1.34-.5 27 27 0 0 1-1.58-.5c-.53-.19-.99-.5-1.36-.92-.36-.44-.54-1-.54-1.66 0-.92.35-1.66 1.04-2.22.7-.56 1.58-.84 2.62-.84.83 0 1.56.19 2.2.56a3.6 3.6 0 0 1 1.5 1.52l-1.82 1.02c-.34-.76-.97-1.14-1.88-1.14-.41 0-.76.1-1.04.28a.86.86 0 0 0-.42.78Zm14.35-2.76h2.16v10h-2.16v-1.44a4.05 4.05 0 0 1-3.5 1.7 4.7 4.7 0 0 1-3.52-1.52 5.24 5.24 0 0 1-1.46-3.74 5.2 5.2 0 0 1 1.46-3.74 4.7 4.7 0 0 1 3.52-1.52c1.52 0 2.68.56 3.5 1.68V340Zm-5.42 7.3c.6.6 1.35.9 2.26.9a3.06 3.06 0 0 0 3.16-3.2 3.09 3.09 0 0 0-3.16-3.2 3.09 3.09 0 0 0-3.16 3.2c0 .92.3 1.69.9 2.3Zm15.15-7.56c1.38 0 2.55.51 3.52 1.54a5.17 5.17 0 0 1 1.46 3.72 5.2 5.2 0 0 1-1.46 3.74 4.7 4.7 0 0 1-3.52 1.52 4.06 4.06 0 0 1-3.5-1.68V354H209v-14h2.16v1.44a4.05 4.05 0 0 1 3.5-1.7Zm-2.6 7.56c.6.6 1.36.9 2.26.9a3.07 3.07 0 0 0 3.16-3.2 3.09 3.09 0 0 0-3.16-3.2 3.09 3.09 0 0 0-3.16 3.2c0 .92.3 1.69.9 2.3Zm14.6-7.56c1.38 0 2.55.51 3.52 1.54a5.16 5.16 0 0 1 1.46 3.72c0 1.48-.48 2.73-1.46 3.74a4.7 4.7 0 0 1-3.52 1.52 4.06 4.06 0 0 1-3.5-1.68V354H221v-14h2.16v1.44a4.05 4.05 0 0 1 3.5-1.7Zm-2.6 7.56c.6.6 1.35.9 2.26.9a3.06 3.06 0 0 0 3.16-3.2 3.09 3.09 0 0 0-3.16-3.2 3.09 3.09 0 0 0-3.16 3.2c0 .92.3 1.69.9 2.3Z"/>
  <path fill="#00AC47" d="M332.2 171.36v-8.03l.82-1.73 4.08-3.28a.83.83 0 0 1 1.36.66v15.77a.85.85 0 0 1-1.4.65l-4.86-4.04Z"/>
  <path fill="#EA4335" d="m318.68 155.9-6.6 6.7h6.6v-6.7Z"/>
  <path fill="#2684FC" d="M318.68 162.64h-6.6v8.75h6.6v-8.75Z"/>
  <path fill="#0066DA" d="M312.09 171.36v4.5c0 1.24.98 2.24 2.2 2.24h4.42v-6.7h-6.62v-.04Z"/>
  <path fill="#FFBA00" d="M333.06 158.11a2.2 2.2 0 0 0-2.15-2.21h-12.23v6.7h8.09v4.4l6.29-.2v-8.69Z"/>
  <path fill="#00AC47" d="M326.77 171.36h-8.09v6.7h12.2c1.19 0 2.14-1 2.14-2.2V167h-6.25v4.36Z"/>
  <path fill="#00832D" d="M333.05 161.64v10.41l-6.28-5.05 6.28-5.36Z"/>
  <path fill="#5F6368" d="M425.7 175.12h-1.94v-15.39h1.94l5.26 9.38h.07l5.27-9.38h1.94v15.4h-1.94v-9.14l.07-2.59h-.07l-4.73 8.44h-1.15l-4.73-8.44h-.06l.06 2.6v9.12Zm19.91.35a4.88 4.88 0 0 1-3.77-1.59 5.68 5.68 0 0 1-1.5-4c0-1.6.48-2.95 1.43-4.02a4.7 4.7 0 0 1 3.67-1.63c1.53 0 2.75.52 3.67 1.53.92 1 1.36 2.42 1.36 4.25l-.03.2h-8.13a3.47 3.47 0 0 0 1.02 2.5c.65.62 1.43.93 2.31.93 1.23 0 2.21-.62 2.93-1.9l1.73.86a5.16 5.16 0 0 1-1.94 2.08c-.78.55-1.7.8-2.75.8Zm-3.1-6.88h5.92a2.54 2.54 0 0 0-.88-1.8 2.95 2.95 0 0 0-2.1-.72c-.76 0-1.37.24-1.91.69a3.35 3.35 0 0 0-1.02 1.83Zm14.52 6.88a4.88 4.88 0 0 1-3.77-1.59 5.67 5.67 0 0 1-1.5-4c0-1.6.48-2.95 1.43-4.02a4.7 4.7 0 0 1 3.67-1.63c1.53 0 2.75.52 3.67 1.53.92 1 1.36 2.42 1.36 4.25l-.03.2h-8.13a3.47 3.47 0 0 0 1.02 2.5c.65.62 1.43.93 2.31.93 1.23 0 2.21-.62 2.93-1.9l1.73.86a5.16 5.16 0 0 1-1.94 2.08c-.75.55-1.7.8-2.75.8Zm-3.1-6.88h5.95a2.54 2.54 0 0 0-.88-1.8 2.95 2.95 0 0 0-2.1-.72c-.75 0-1.37.24-1.91.69a3.2 3.2 0 0 0-1.05 1.83Zm13.6 6.71c-.85 0-1.56-.28-2.1-.8a3.1 3.1 0 0 1-.86-2.21v-5.88h-1.8v-1.83h1.8v-3.22h1.94v3.22h2.55v1.8h-2.55v5.25c0 .7.14 1.18.41 1.45.27.24.58.38.92.38.17 0 .3 0 .44-.03.17-.04.3-.1.4-.14l.62 1.76a6.8 6.8 0 0 1-1.77.25Zm-107.87-6.68v-2.35h7.75c.07.42.14.9.14 1.45 0 1.77-.48 3.95-2 5.5a7.67 7.67 0 0 1-5.92 2.42 8.65 8.65 0 0 1-8.56-8.6c0-4.75 3.9-8.62 8.56-8.62a7.88 7.88 0 0 1 5.78 2.39l-1.63 1.66a5.92 5.92 0 0 0-4.18-1.7c-3.4 0-6.05 2.8-6.05 6.26a6.12 6.12 0 0 0 6.05 6.26c2.2 0 3.46-.9 4.28-1.73a5 5 0 0 0 1.26-2.94h-5.48Zm19.64 1.46a5.42 5.42 0 0 1-5.47 5.53 5.42 5.42 0 0 1-5.47-5.53 5.4 5.4 0 0 1 5.47-5.53 5.42 5.42 0 0 1 5.48 5.53Zm-2.4 0c0-2-1.43-3.35-3.06-3.35-1.67 0-3.06 1.34-3.06 3.35 0 1.97 1.42 3.35 3.06 3.35 1.63 0 3.05-1.38 3.05-3.35Zm14.3 0a5.42 5.42 0 0 1-5.47 5.53 5.42 5.42 0 0 1-5.47-5.53 5.4 5.4 0 0 1 5.47-5.53 5.4 5.4 0 0 1 5.47 5.53Zm-2.38 0c0-2-1.43-3.35-3.06-3.35-1.66 0-3.06 1.34-3.06 3.35 0 1.97 1.43 3.35 3.06 3.35 1.63 0 3.06-1.38 3.06-3.35Zm13.83-5.23v9.96c0 4.08-2.38 5.78-5.16 5.78a5.18 5.18 0 0 1-4.83-3.29l2.07-.86c.38.9 1.3 1.97 2.76 1.97 1.8 0 2.92-1.14 2.92-3.25v-.8h-.07a3.72 3.72 0 0 1-2.85 1.25c-2.72 0-5.24-2.42-5.24-5.53 0-3.12 2.49-5.57 5.24-5.57 1.29 0 2.34.59 2.85 1.24h.07v-.9h2.24Zm-2.1 5.23c0-1.94-1.3-3.4-2.93-3.4-1.66 0-3.02 1.42-3.02 3.4 0 1.93 1.4 3.35 3.02 3.35 1.63 0 2.93-1.42 2.93-3.35Zm6.15-11.03v16.22h-2.38v-16.22h2.38Zm9.24 12.86 1.87 1.25a5.41 5.41 0 0 1-4.52 2.45c-3.1 0-5.4-2.42-5.4-5.53 0-3.29 2.34-5.53 5.13-5.53 2.82 0 4.21 2.28 4.65 3.52l.24.63-7.27 3.08a2.79 2.79 0 0 0 2.65 1.69c1.16-.03 2-.66 2.65-1.56Zm-5.74-2 4.86-2.04c-.27-.7-1.09-1.18-2-1.18-1.23-.03-2.9 1.07-2.86 3.22Z"/>
  <g fill="#6563FF" clip-path="url(#k)">
    <path d="M320.32 241.4H307.4v12.92h12.94V241.4Zm14.28 0h-12.93v12.92h12.94V241.4Zm-14.28 14.27H307.4v12.94h12.94v-12.94Zm14.28 0h-12.93v12.94h12.94v-12.94Z"/>
  </g>
  <path fill="#141414" d="M352.68 248.8V260h-1.47v-8.75l-3.67 6.1h-.19l-3.66-6.09V260h-1.49v-11.2h1.68l3.57 5.92 3.55-5.92h1.68Zm2.95 1.74a.92.92 0 0 1-.67-.27.9.9 0 0 1-.27-.65c0-.26.1-.48.27-.66.18-.2.4-.29.68-.29.25 0 .47.1.65.29.18.18.27.4.27.66a.9.9 0 0 1-.27.65.9.9 0 0 1-.66.27Zm-.7 9.46v-8h1.4v8h-1.4Zm7.28.2A4.08 4.08 0 0 1 358 256a4.07 4.07 0 0 1 4.2-4.2 4 4 0 0 1 2.13.57c.63.37 1.1.88 1.41 1.52l-1.17.67a2.63 2.63 0 0 0-2.36-1.41 2.78 2.78 0 0 0-2.82 2.85 2.76 2.76 0 0 0 2.82 2.83 2.8 2.8 0 0 0 1.44-.37c.42-.25.75-.6.97-1.02l1.19.69a3.95 3.95 0 0 1-3.6 2.08Zm6.38-6.86c.46-.99 1.29-1.48 2.5-1.48v1.45a2.52 2.52 0 0 0-1.76.55c-.5.4-.74 1.02-.74 1.9V260h-1.4v-8h1.4v1.34Zm10.17 5.65a4.1 4.1 0 0 1-3 1.22 4.1 4.1 0 0 1-2.98-1.22 4.07 4.07 0 0 1-1.22-2.99c0-1.18.4-2.18 1.22-3a4.1 4.1 0 0 1 2.99-1.2 4.17 4.17 0 0 1 4.22 4.2c0 1.18-.4 2.18-1.23 3Zm-3-.14c.8 0 1.48-.27 2.03-.82.54-.54.81-1.22.81-2.03 0-.81-.27-1.49-.81-2.03a2.74 2.74 0 0 0-2.02-.82 2.7 2.7 0 0 0-2 .82 2.76 2.76 0 0 0-.82 2.03c0 .81.28 1.49.82 2.03a2.7 2.7 0 0 0 2 .82Zm6.9-4.69c0 .3.16.56.47.75.3.18.68.33 1.12.45.43.1.87.23 1.3.38.45.14.82.39 1.13.74.3.34.46.78.46 1.33 0 .72-.28 1.3-.85 1.74-.55.44-1.27.66-2.14.66-.78 0-1.44-.17-2-.51-.55-.34-.95-.8-1.18-1.36l1.2-.7c.12.4.36.7.72.92.35.22.77.34 1.26.34.46 0 .84-.09 1.14-.26a.9.9 0 0 0 .44-.83c0-.31-.15-.56-.46-.74-.3-.19-.68-.34-1.12-.45-.44-.11-.87-.25-1.31-.4-.44-.15-.81-.4-1.12-.73a1.88 1.88 0 0 1-.47-1.31c0-.7.27-1.27.8-1.72a3.1 3.1 0 0 1 2.04-.67c.65 0 1.22.15 1.72.45.52.29.9.7 1.16 1.22l-1.17.65c-.29-.68-.86-1.02-1.71-1.02-.4 0-.73.1-1.01.29a.88.88 0 0 0-.42.78Zm12.66 4.83a4.1 4.1 0 0 1-2.99 1.22 4.1 4.1 0 0 1-2.99-1.22 4.07 4.07 0 0 1-1.22-2.99c0-1.18.4-2.18 1.22-3a4.1 4.1 0 0 1 3-1.2c1.17 0 2.16.4 2.98 1.2.82.82 1.24 1.82 1.24 3s-.42 2.18-1.24 3Zm-2.99-.14c.8 0 1.47-.27 2.02-.82.54-.54.81-1.22.81-2.03 0-.81-.27-1.49-.81-2.03a2.74 2.74 0 0 0-2.02-.82 2.7 2.7 0 0 0-2 .82 2.76 2.76 0 0 0-.81 2.03c0 .81.27 1.49.81 2.03a2.7 2.7 0 0 0 2 .82Zm9.68-8.91c-1.4-.12-2.11.49-2.11 1.82v.24h2.11v1.34h-2.11V260h-1.4v-6.66h-1.27V252h1.28v-.24c0-1.08.3-1.9.9-2.45.6-.55 1.47-.8 2.6-.72v1.35Zm5.71 3.4h-2.13v4.34c0 .4.08.68.23.85.16.16.4.24.72.25.32 0 .71 0 1.18-.03V260c-1.22.16-2.1.06-2.67-.29-.57-.36-.85-1.04-.85-2.03v-4.34h-1.58V252h1.58v-1.82l1.4-.42V252h2.12v1.34Zm15.15 5.17a5.56 5.56 0 0 1-4.11 1.7c-1.62 0-3-.57-4.11-1.7a5.63 5.63 0 0 1-1.68-4.11c0-1.62.56-3 1.68-4.11a5.56 5.56 0 0 1 4.1-1.7c1.63 0 3 .57 4.12 1.7a5.56 5.56 0 0 1 1.7 4.11 5.6 5.6 0 0 1-1.7 4.11Zm-7.2-1a4.2 4.2 0 0 0 3.09 1.24 4.25 4.25 0 0 0 4.32-4.35 4.2 4.2 0 0 0-1.25-3.1 4.11 4.11 0 0 0-3.07-1.27 4.24 4.24 0 0 0-4.32 4.37c0 1.23.41 2.26 1.23 3.1Zm16.14-5.51h1.4v8h-1.4v-1.15a2.84 2.84 0 0 1-2.6 1.36c-.93 0-1.68-.3-2.25-.88a3.4 3.4 0 0 1-.85-2.42V252h1.4v4.83c0 .65.17 1.16.52 1.52a2 2 0 0 0 1.46.53c.7 0 1.25-.21 1.68-.64.43-.44.64-1.1.64-2V252Zm7.86 1.34h-2.12v4.34c0 .4.07.68.22.85.16.16.4.24.72.25.32 0 .71 0 1.18-.03V260c-1.21.16-2.1.06-2.67-.29-.56-.36-.85-1.04-.85-2.03v-4.34h-1.58V252h1.58v-1.82l1.4-.42V252h2.12v1.34Zm1.65 6.66v-11.68h1.4V260h-1.4Zm10.27-1a4.1 4.1 0 0 1-3 1.2 4.1 4.1 0 0 1-2.98-1.2 4.07 4.07 0 0 1-1.22-3c0-1.18.4-2.18 1.22-3a4.1 4.1 0 0 1 2.99-1.2 4.13 4.13 0 0 1 4.22 4.2c0 1.18-.4 2.18-1.23 3Zm-3-.15c.8 0 1.48-.27 2.02-.82.55-.54.82-1.22.82-2.03 0-.81-.27-1.49-.82-2.03a2.74 2.74 0 0 0-2.01-.82c-.8 0-1.46.27-2 .82a2.76 2.76 0 0 0-.82 2.03c0 .81.27 1.49.82 2.03.54.55 1.2.82 2 .82Zm12.62.14a4.1 4.1 0 0 1-2.99 1.22 4.1 4.1 0 0 1-2.99-1.22 4.07 4.07 0 0 1-1.22-2.99c0-1.18.41-2.18 1.22-3a4.1 4.1 0 0 1 3-1.2c1.17 0 2.16.4 2.98 1.2.83.82 1.24 1.82 1.24 3s-.41 2.18-1.24 3Zm-2.99-.14c.8 0 1.47-.27 2.02-.82.54-.54.81-1.22.81-2.03 0-.81-.27-1.49-.81-2.03a2.74 2.74 0 0 0-2.02-.82 2.7 2.7 0 0 0-2 .82 2.76 2.76 0 0 0-.81 2.03c0 .81.27 1.49.81 2.03a2.7 2.7 0 0 0 2 .82Zm12.63 1.15h-1.72l-3.65-3.8v3.8h-1.4v-11.2h1.4v6.74l3.45-3.54h1.8l-3.83 3.87 3.96 4.13Z"/>
  <defs>
    <filter id="a" width="203.43" height="68.98" x="65.79" y="134" color-interpolation-filters="sRGB" filterUnits="userSpaceOnUse">
      <feFlood flood-opacity="0" result="BackgroundImageFix"/>
      <feColorMatrix in="SourceAlpha" result="hardAlpha" values="0 0 0 0 0 0 0 0 0 0 0 0 0 0 0 0 0 0 127 0"/>
      <feOffset dy="2.77"/>
      <feGaussianBlur stdDeviation="1.11"/>
      <feColorMatrix values="0 0 0 0 0 0 0 0 0 0 0 0 0 0 0 0 0 0 0.0196802 0"/>
      <feBlend in2="BackgroundImageFix" result="effect1_dropShadow_7266_21438"/>
      <feBlend in="SourceGraphic" in2="effect1_dropShadow_7266_21438" result="shape"/>
    </filter>
    <filter id="b" width="203.43" height="68.98" x="65.79" y="311" color-interpolation-filters="sRGB" filterUnits="userSpaceOnUse">
      <feFlood flood-opacity="0" result="BackgroundImageFix"/>
      <feColorMatrix in="SourceAlpha" result="hardAlpha" values="0 0 0 0 0 0 0 0 0 0 0 0 0 0 0 0 0 0 127 0"/>
      <feOffset dy="2.77"/>
      <feGaussianBlur stdDeviation="1.11"/>
      <feColorMatrix values="0 0 0 0 0 0 0 0 0 0 0 0 0 0 0 0 0 0 0.0196802 0"/>
      <feBlend in2="BackgroundImageFix" result="effect1_dropShadow_7266_21438"/>
      <feBlend in="SourceGraphic" in2="effect1_dropShadow_7266_21438" result="shape"/>
    </filter>
    <filter id="c" width="203.43" height="68.98" x="287.79" y="311" color-interpolation-filters="sRGB" filterUnits="userSpaceOnUse">
      <feFlood flood-opacity="0" result="BackgroundImageFix"/>
      <feColorMatrix in="SourceAlpha" result="hardAlpha" values="0 0 0 0 0 0 0 0 0 0 0 0 0 0 0 0 0 0 127 0"/>
      <feOffset dy="2.77"/>
      <feGaussianBlur stdDeviation="1.11"/>
      <feColorMatrix values="0 0 0 0 0 0 0 0 0 0 0 0 0 0 0 0 0 0 0.0196802 0"/>
      <feBlend in2="BackgroundImageFix" result="effect1_dropShadow_7266_21438"/>
      <feBlend in="SourceGraphic" in2="effect1_dropShadow_7266_21438" result="shape"/>
    </filter>
    <filter id="e" width="203.43" height="68.98" x="287.79" y="135" color-interpolation-filters="sRGB" filterUnits="userSpaceOnUse">
      <feFlood flood-opacity="0" result="BackgroundImageFix"/>
      <feColorMatrix in="SourceAlpha" result="hardAlpha" values="0 0 0 0 0 0 0 0 0 0 0 0 0 0 0 0 0 0 127 0"/>
      <feOffset dy="2.77"/>
      <feGaussianBlur stdDeviation="1.11"/>
      <feColorMatrix values="0 0 0 0 0 0 0 0 0 0 0 0 0 0 0 0 0 0 0.0196802 0"/>
      <feBlend in2="BackgroundImageFix" result="effect1_dropShadow_7266_21438"/>
      <feBlend in="SourceGraphic" in2="effect1_dropShadow_7266_21438" result="shape"/>
    </filter>
    <filter id="f" width="203.43" height="68.98" x="65.79" y="222" color-interpolation-filters="sRGB" filterUnits="userSpaceOnUse">
      <feFlood flood-opacity="0" result="BackgroundImageFix"/>
      <feColorMatrix in="SourceAlpha" result="hardAlpha" values="0 0 0 0 0 0 0 0 0 0 0 0 0 0 0 0 0 0 127 0"/>
      <feOffset dy="2.77"/>
      <feGaussianBlur stdDeviation="1.11"/>
      <feColorMatrix values="0 0 0 0 0 0 0 0 0 0 0 0 0 0 0 0 0 0 0.0196802 0"/>
      <feBlend in2="BackgroundImageFix" result="effect1_dropShadow_7266_21438"/>
      <feBlend in="SourceGraphic" in2="effect1_dropShadow_7266_21438" result="shape"/>
    </filter>
    <filter id="h" width="203.43" height="68.98" x="287.79" y="223" color-interpolation-filters="sRGB" filterUnits="userSpaceOnUse">
      <feFlood flood-opacity="0" result="BackgroundImageFix"/>
      <feColorMatrix in="SourceAlpha" result="hardAlpha" values="0 0 0 0 0 0 0 0 0 0 0 0 0 0 0 0 0 0 127 0"/>
      <feOffset dy="2.77"/>
      <feGaussianBlur stdDeviation="1.11"/>
      <feColorMatrix values="0 0 0 0 0 0 0 0 0 0 0 0 0 0 0 0 0 0 0.0196802 0"/>
      <feBlend in2="BackgroundImageFix" result="effect1_dropShadow_7266_21438"/>
      <feBlend in="SourceGraphic" in2="effect1_dropShadow_7266_21438" result="shape"/>
    </filter>
    <clipPath id="d">
      <path fill="#fff" d="M328 326h122v34H328z"/>
    </clipPath>
    <clipPath id="g">
      <path fill="#fff" d="M84 240h28v28H84z"/>
    </clipPath>
    <clipPath id="i">
      <path fill="#fff" d="M98.85 327h31.3v32h-31.3z"/>
    </clipPath>
    <clipPath id="k">
      <path fill="#fff" d="M307 241h28v28h-28z"/>
    </clipPath>
    <linearGradient id="j" x1="114.5" x2="114.5" y1="358.08" y2="327.55" gradientUnits="userSpaceOnUse">
      <stop stop-color="#20B038"/>
      <stop offset="1" stop-color="#60D66A"/>
    </linearGradient>
  </defs>
</svg>
